HIERARCHY
ROOT Pelvis
{
	OFFSET 0.000000 0.000000 0.000000
	CHANNELS 6 Xposition Yposition Zposition Xrotation Yrotation Zrotation
	JOINT LeftUpLeg_virtual
	{
		OFFSET 0.000000 0.000000 0.000000
		CHANNELS 3 Xrotation Yrotation Zrotation
		JOINT LeftUpLeg
		{
			OFFSET 18.735201 -5.666702 -4.541200
			CHANNELS 3 Xrotation Yrotation Zrotation
			JOINT LeftLeg
			{
				OFFSET -0.021200 -31.938179 0.493100
				CHANNELS 3 Xrotation Yrotation Zrotation
				JOINT LeftFoot
				{
					OFFSET 0.021200 -31.938179 -4.336299
					CHANNELS 3 Xrotation Yrotation Zrotation
					JOINT LeftToeBase
					{
						OFFSET 0.943001 -26.722000 15.023500
						CHANNELS 3 Xrotation Yrotation Zrotation
						End Site
						{
							OFFSET 0 0 0
						}
					}
				}
			}
		}
	}
	JOINT RightUpLeg_virtual
	{
		OFFSET 0.000000 0.000000 0.000000
		CHANNELS 3 Xrotation Yrotation Zrotation
		JOINT RightUpLeg
		{
			OFFSET -18.735201 -5.666702 -4.541200
			CHANNELS 3 Xrotation Yrotation Zrotation
			JOINT RightLeg
			{
				OFFSET 0.018946 -31.938133 0.493100
				CHANNELS 3 Xrotation Yrotation Zrotation
				JOINT RightFoot
				{
					OFFSET -0.018946 -31.938126 -4.336299
					CHANNELS 3 Xrotation Yrotation Zrotation
					JOINT RightToeBase
					{
						OFFSET -0.943001 -26.722004 15.023500
						CHANNELS 3 Xrotation Yrotation Zrotation
						End Site
						{
							OFFSET 0 0 0
						}
					}
				}
			}
		}
	}
	JOINT Hips_virtual
	{
		OFFSET 0.000000 0.000000 0.000000
		CHANNELS 3 Xrotation Yrotation Zrotation
		JOINT Hips
		{
			OFFSET -0.000000 -0.000000 -0.000000
			CHANNELS 3 Xrotation Yrotation Zrotation
			JOINT Spine
			{
				OFFSET 0.000000 10.199997 -0.299500
				CHANNELS 3 Xrotation Yrotation Zrotation
				JOINT Spine1
				{
					OFFSET 0.000000 11.900002 -1.516600
					CHANNELS 3 Xrotation Yrotation Zrotation
					JOINT Spine2
					{
						OFFSET 0.000000 13.600006 -2.842500
						CHANNELS 3 Xrotation Yrotation Zrotation
						JOINT Neck_virtual
						{
							OFFSET 0.000000 0.000000 0.000000
							CHANNELS 3 Xrotation Yrotation Zrotation
							JOINT Neck
							{
								OFFSET 0.000000 9.624100 -2.890100
								CHANNELS 3 Xrotation Yrotation Zrotation
								JOINT Head
								{
									OFFSET 0.000000 14.068802 -1.351900
									CHANNELS 3 Xrotation Yrotation Zrotation
									End Site
									{
										OFFSET 0 0 0
									}
								}
							}
						}
						JOINT LeftShoulder_virtual
						{
							OFFSET 0.000000 0.000000 0.000000
							CHANNELS 3 Xrotation Yrotation Zrotation
							JOINT LeftShoulder
							{
								OFFSET 15.263000 10.923401 -0.547700
								CHANNELS 3 Xrotation Yrotation Zrotation
								JOINT LeftArm
								{
									OFFSET 25.438599 -2.830597 -13.032500
									CHANNELS 3 Xrotation Yrotation Zrotation
									JOINT LeftForeArm
									{
										OFFSET 29.960503 0.000000 0.000000
										CHANNELS 3 Xrotation Yrotation Zrotation
										JOINT LeftHand
										{
											OFFSET 27.849251 0.000000 0.000000
											CHANNELS 3 Xrotation Yrotation Zrotation
											End Site
											{
												OFFSET 0 0 0
											}
										}
									}
								}
							}
						}
						JOINT RightShoulder_virtual
						{
							OFFSET 0.000000 0.000000 0.000000
							CHANNELS 3 Xrotation Yrotation Zrotation
							JOINT RightShoulder
							{
								OFFSET -15.263000 10.923401 -0.547700
								CHANNELS 3 Xrotation Yrotation Zrotation
								JOINT RightArm
								{
									OFFSET -25.438599 -2.830597 -13.032500
									CHANNELS 3 Xrotation Yrotation Zrotation
									JOINT RightForeArm
									{
										OFFSET -29.960503 0.000000 0.000000
										CHANNELS 3 Xrotation Yrotation Zrotation
										JOINT RightHand
										{
											OFFSET -27.849251 0.000000 0.000000
											CHANNELS 3 Xrotation Yrotation Zrotation
											End Site
											{
												OFFSET 0 0 0
											}
										}
									}
								}
							}
						}
					}
				}
			}
		}
	}
}
MOTION
Frames: 10
Frame Time: 0.03333333
-3.296138 120.182877 307.347565 0.000000 0.000000 0.000000 -15.989111 -57.882786 11.410234 -69.377920 -14.739741 28.969916 79.992116 12.533312 9.507182 15.700202 6.088018 18.518333 0.000000 0.000000 0.000000 -20.848353 -36.377697 19.895892 -66.690527 -18.207522 -0.512687 84.974950 6.340803 0.839942 21.000506 6.208896 19.568661 0.000000 0.000000 0.000000 0.179587 -24.088009 3.456144 4.021680 -9.199840 7.517716 31.638468 6.504891 -16.961831 15.596860 5.077973 -8.092411 0.000000 0.000000 0.000000 10.276181 0.873499 -3.970971 3.653741 1.199599 -0.699704 0.000000 0.000000 0.000000 15.524375 1.030663 -2.098900 4.344231 -3.303978 -1.178047 -46.892643 -14.692463 -25.755475 -8.200586 -64.917874 -0.833311 0.000000 0.000000 0.000000 13.953527 3.488073 -1.451471 8.444804 17.446977 -11.766392 -82.691208 -21.125743 33.128716 -64.903258 43.669463 52.241983 0.000000 0.000000 0.000000 
-3.223256 118.817078 313.028656 0.000000 0.000000 0.000000 -14.398508 -57.898865 12.401143 -68.343447 -14.699213 29.268365 78.510695 12.064260 9.114385 14.642751 5.846650 17.450245 0.000000 0.000000 0.000000 -20.320798 -36.938496 19.838189 -66.190475 -18.393705 -0.497432 80.016472 6.335675 1.785051 17.527821 5.265164 20.740040 0.000000 0.000000 0.000000 0.234617 -24.582942 3.608701 5.052168 -8.362569 7.997683 31.680282 6.372661 -16.662687 15.666145 4.935159 -7.959377 0.000000 0.000000 0.000000 10.411996 0.711888 -4.020990 3.742075 1.183637 -0.834243 0.000000 0.000000 0.000000 15.696459 0.906196 -1.975064 4.523323 -3.177546 -1.498961 -49.350822 -13.137279 -26.495864 -10.948116 -63.926814 -3.039676 0.000000 0.000000 0.000000 14.191291 3.386572 -1.249723 8.735320 17.426553 -11.110877 -81.220805 -21.832256 34.511983 -64.564590 44.144588 52.524080 0.000000 0.000000 0.000000 
-3.201016 117.216125 318.913452 0.000000 0.000000 0.000000 -12.766088 -57.607154 13.354956 -67.197751 -14.546884 29.550714 76.684836 11.590870 8.692080 13.363628 5.631310 16.330566 0.000000 0.000000 0.000000 -19.304992 -36.669127 19.658888 -64.954375 -18.315052 -0.541950 74.477680 6.129819 2.626352 13.739940 4.146539 21.540871 0.000000 0.000000 0.000000 0.264567 -25.120621 3.744699 6.035066 -7.461861 8.386677 31.624633 6.247646 -16.315008 15.661716 4.787807 -7.791467 0.000000 0.000000 0.000000 10.609381 0.530985 -4.035451 3.858312 1.165622 -0.957739 0.000000 0.000000 0.000000 15.807342 0.777111 -1.830803 4.694969 -2.993501 -1.776270 -51.463549 -11.512782 -27.125082 -13.310691 -62.714975 -4.924010 0.000000 0.000000 0.000000 14.403267 3.252591 -1.052588 9.028679 17.286500 -10.436275 -79.492911 -22.474720 35.949932 -64.030216 44.757079 52.659628 0.000000 0.000000 0.000000 
-3.205903 115.439613 324.990021 0.000000 0.000000 0.000000 -11.183063 -57.005794 14.203035 -65.981246 -14.281811 29.803414 74.554718 11.137677 8.236515 11.885120 5.466276 15.179085 0.000000 0.000000 0.000000 -17.867782 -35.655486 19.356187 -63.052099 -17.991282 -0.658416 68.641639 5.698508 3.284061 9.807719 2.896631 21.862121 0.000000 0.000000 0.000000 0.265108 -25.702082 3.856140 6.938971 -6.549304 8.666405 31.475134 6.124704 -15.915908 15.584888 4.635303 -7.586175 0.000000 0.000000 0.000000 10.865096 0.332657 -4.014314 4.001378 1.144782 -1.068557 0.000000 0.000000 0.000000 15.857558 0.642083 -1.662493 4.860046 -2.771218 -1.984441 -53.196426 -9.877434 -27.647528 -15.233210 -61.330570 -6.444862 0.000000 0.000000 0.000000 14.583787 3.086352 -0.858032 9.315526 17.027387 -9.734900 -77.509233 -23.031210 37.442906 -63.315662 45.498967 52.659119 0.000000 0.000000 0.000000 
-3.217776 113.536766 331.237793 0.000000 0.000000 0.000000 -9.729622 -56.093898 14.888600 -64.735105 -13.904927 30.014365 72.178106 10.720668 7.739882 10.246190 5.369604 14.002375 0.000000 0.000000 0.000000 -16.104481 -33.987452 18.934966 -60.585219 -17.452382 -0.848121 62.786207 5.059409 3.684054 5.880053 1.591035 21.637517 0.000000 0.000000 0.000000 0.228086 -26.319659 3.933303 7.729924 -5.671914 8.816978 31.232242 6.001167 -15.461183 15.435234 4.478343 -7.340168 0.000000 0.000000 0.000000 11.168170 0.119218 -3.961279 4.166688 1.120175 -1.167154 0.000000 0.000000 0.000000 15.842649 0.500277 -1.467791 5.012476 -2.530666 -2.104110 -54.536619 -8.284723 -28.082275 -16.707966 -59.828209 -7.607216 0.000000 0.000000 0.000000 14.725893 2.887627 -0.664220 9.584597 16.646943 -9.001158 -75.257265 -23.481410 39.003153 -62.435627 46.362948 52.540434 0.000000 0.000000 0.000000 
-3.219997 111.540527 337.627808 0.000000 0.000000 0.000000 -8.463214 -54.873511 15.375722 -63.496273 -13.419763 30.174632 69.624298 10.349574 7.193222 8.496748 5.353632 12.799150 0.000000 0.000000 0.000000 -14.123568 -31.743707 18.406453 -57.675552 -16.731793 -1.102028 57.160361 4.272285 3.777956 2.080713 0.327123 20.861455 0.000000 0.000000 0.000000 0.143022 -26.957473 3.965662 8.376353 -4.868435 8.818141 30.893738 5.877543 -14.946469 15.210833 4.319166 -7.049989 0.000000 0.000000 0.000000 11.500754 -0.105947 -3.881663 4.346507 1.091058 -1.254881 0.000000 0.000000 0.000000 15.753585 0.351869 -1.246699 5.139804 -2.289871 -2.126343 -55.491469 -6.777547 -28.462877 -17.765781 -58.267319 -8.453554 0.000000 0.000000 0.000000 14.821219 2.655712 -0.469676 9.822971 16.139325 -8.231715 -72.712486 -23.802417 40.649150 -61.399303 47.343292 52.320871 0.000000 0.000000 0.000000 
-3.197374 109.468307 344.126984 0.000000 0.000000 0.000000 -7.411612 -53.354084 15.652529 -62.292883 -12.832721 30.278881 66.968120 10.031159 6.589360 6.691475 5.426463 11.566618 0.000000 0.000000 0.000000 -12.030053 -28.987897 17.783596 -54.450439 -15.860555 -1.405463 51.967211 3.425397 3.558419 -1.488190 -0.794057 19.596409 0.000000 0.000000 0.000000 -0.000139 -27.592820 3.943429 8.856923 -4.165008 8.652432 30.456295 5.757749 -14.368788 14.909217 4.161668 -6.713042 0.000000 0.000000 0.000000 11.838221 -0.337850 -3.780246 4.529935 1.057256 -1.332744 0.000000 0.000000 0.000000 15.578087 0.198484 -1.002327 5.225011 -2.062346 -2.055734 -56.084770 -5.384764 -28.835396 -18.463830 -56.710149 -9.051629 0.000000 0.000000 0.000000 14.859517 2.389688 -0.273171 10.015891 15.495889 -7.424253 -69.845631 -23.966603 42.396760 -60.207373 48.434948 52.009227 0.000000 0.000000 0.000000 
-3.133854 107.329475 350.702637 0.000000 0.000000 0.000000 -6.572143 -51.557451 15.728008 -61.141128 -12.152635 30.324107 64.283398 9.772349 5.925579 4.883551 5.593606 10.306504 0.000000 0.000000 0.000000 -9.911167 -25.774921 17.075849 -51.027592 -14.864553 -1.744402 47.351024 2.613753 3.063470 -4.744852 -1.689424 17.967038 0.000000 0.000000 0.000000 -0.207464 -28.198026 3.859633 9.169337 -3.570251 8.309628 29.917888 5.649007 -13.728016 14.528914 4.011369 -6.328553 0.000000 0.000000 0.000000 12.149004 -0.569698 -3.660026 4.702740 1.019448 -1.400690 0.000000 0.000000 0.000000 15.302665 0.043377 -0.741024 5.249181 -1.855348 -1.911048 -56.351639 -4.120904 -29.254414 -18.873191 -55.219689 -9.481749 0.000000 0.000000 0.000000 14.828038 2.089102 -0.073404 10.146467 14.708049 -6.575316 -66.635011 -23.943921 44.248032 -58.849682 49.628974 51.597909 0.000000 0.000000 0.000000 
-3.011945 105.136688 357.322235 0.000000 0.000000 0.000000 -5.917080 -49.520050 15.623762 -60.044391 -11.389307 30.307329 61.636023 9.582689 5.205655 3.118578 5.859444 9.029742 0.000000 0.000000 0.000000 -7.827363 -22.165654 16.287460 -47.504481 -13.766524 -2.109911 43.388036 1.917459 2.368689 -7.632725 -2.312306 16.141084 0.000000 0.000000 0.000000 -0.477508 -28.742478 3.712388 9.337199 -3.071295 7.791377 29.280683 5.561380 -13.027906 14.071341 3.875211 -5.898276 0.000000 0.000000 0.000000 12.395427 -0.793091 -3.522321 4.847690 0.979310 -1.457689 0.000000 0.000000 0.000000 14.915067 -0.108733 -0.471699 5.194522 -1.669415 -1.722611 -56.333706 -2.989413 -29.777545 -19.068252 -53.857421 -9.825450 0.000000 0.000000 0.000000 14.711281 1.755081 0.131273 10.195801 13.772373 -5.678516 -63.081127 -23.709183 46.180405 -57.302938 50.905728 51.055794 0.000000 0.000000 0.000000 
-2.814846 102.916084 363.947662 0.000000 0.000000 0.000000 -5.403149 -47.290912 15.364374 -58.994748 -10.551760 30.223522 59.077557 9.475782 4.440995 1.429926 6.228370 7.759428 0.000000 0.000000 0.000000 -5.810164 -18.244303 15.421225 -43.954853 -12.591521 -2.498108 40.086192 1.387712 1.570996 -10.127642 -2.660787 14.301643 0.000000 0.000000 0.000000 -0.799173 -29.195169 3.506580 9.411596 -2.633560 7.114125 28.553317 5.507004 -12.276270 13.542314 3.761149 -5.426698 0.000000 0.000000 0.000000 12.536665 -0.998605 -3.367917 4.945900 0.939511 -1.502459 0.000000 0.000000 0.000000 14.406711 -0.252148 -0.204415 5.047088 -1.499284 -1.526718 -56.075979 -1.988411 -30.459003 -19.120063 -52.682157 -10.157515 0.000000 0.000000 0.000000 14.491722 1.391645 0.342838 10.144170 12.696998 -4.724587 -59.219236 -23.253193 48.140457 -55.529055 52.227871 50.323888 0.000000 0.000000 0.000000 
